<svg width="24" height="24" viewBox="0 0 24 24" fill="none" xmlns="http://www.w3.org/2000/svg">
<g id="Frame 1">
<path id="image 2 (Traced)" fill-rule="evenodd" clip-rule="evenodd" d="M5.33658 2.34099C4.38272 2.59107 3.67547 3.29073 3.36741 4.28902C3.28542 4.55471 3.28125 4.90435 3.28125 11.5058V18.4433L3.38475 18.7714C3.65822 19.6382 4.31869 20.3111 5.20031 20.6208L5.53125 20.7371L8.69531 20.7621L11.8594 20.787L12.0988 20.9393C12.6361 21.281 13.4474 21.5699 14.1795 21.6802C15.6861 21.9074 17.2346 21.5139 18.4633 20.5917C20.5375 19.035 21.3095 16.3126 20.3632 13.8917C20.1055 13.2327 19.7207 12.6333 19.207 12.0909L18.7734 11.633V8.16671C18.7734 4.86826 18.7689 4.68291 18.6809 4.33838C18.55 3.82702 18.3341 3.44949 17.9531 3.06638C17.5737 2.68477 17.2049 2.47402 16.683 2.34052C16.3326 2.2509 16.15 2.24804 10.9964 2.25052C5.9452 2.25296 5.65467 2.2576 5.33658 2.34099ZM16.5453 3.86359C16.7829 3.98138 17.04 4.23849 17.1578 4.47605C17.2462 4.65427 17.2506 4.78754 17.263 7.67926C17.274 10.1966 17.2656 10.6925 17.2128 10.6722C15.9392 10.1835 14.4942 10.1306 13.2656 10.5279C11.4131 11.1269 9.96506 12.6546 9.47287 14.5292C9.08611 16.0023 9.28031 17.4963 10.0324 18.8338C10.1478 19.0389 10.2422 19.2205 10.2422 19.2373C10.2422 19.2541 9.22444 19.2616 7.98047 19.254L5.71875 19.2401L5.49745 19.1302C5.24527 19.0048 4.986 18.7383 4.86436 18.4794C4.78598 18.3128 4.78125 17.9154 4.78125 11.5292C4.78125 5.88451 4.79203 4.72515 4.84603 4.57219C4.96003 4.24927 5.33878 3.9009 5.69503 3.79135C5.75963 3.77148 8.18555 3.75882 11.0859 3.76327C16.2269 3.77119 16.3641 3.77368 16.5453 3.86359ZM6.65887 5.35379C6.15019 5.64305 6.16462 6.39141 6.684 6.6564C6.86241 6.74743 6.95691 6.74916 11.0821 6.73698C15.2571 6.72465 15.2991 6.72357 15.4273 6.62785C15.6733 6.44419 15.75 6.29438 15.75 5.99794C15.75 5.70151 15.6733 5.55169 15.4273 5.36804C15.2991 5.27227 15.2581 5.27129 11.0708 5.26004L6.84375 5.24865L6.65887 5.35379ZM6.65887 8.35421C6.15094 8.64188 6.16458 9.39141 6.68255 9.65565C6.85477 9.74349 6.96731 9.74794 9.02344 9.74794C11.0796 9.74794 11.1921 9.74349 11.3643 9.65565C11.8899 9.38752 11.8899 8.60837 11.3643 8.34024C11.192 8.25235 11.0803 8.24799 9.01359 8.24869C6.85509 8.24949 6.84277 8.25005 6.65887 8.35421ZM6.65887 11.3542C6.15094 11.6419 6.16458 12.3914 6.68255 12.6556C6.83714 12.7345 6.95944 12.7479 7.52344 12.7479C8.08744 12.7479 8.20973 12.7345 8.36433 12.6556C8.88989 12.3875 8.88989 11.6084 8.36433 11.3402C8.20908 11.261 8.08837 11.248 7.51359 11.2487C6.90759 11.2494 6.82612 11.2595 6.65887 11.3542ZM15.8327 11.8303C16.5964 11.9764 17.3471 12.3636 17.9176 12.9054C18.5407 13.4973 18.9545 14.2065 19.1556 15.0271C19.2944 15.5935 19.2943 16.4573 19.1555 16.978C18.81 18.2738 18.0621 19.2124 16.9219 19.781C16.2219 20.1301 15.8469 20.216 15.0234 20.216C14.1999 20.216 13.8249 20.1301 13.125 19.781C12.1871 19.3133 11.4797 18.5513 11.0867 17.5857C10.6505 16.5138 10.6846 15.2696 11.1792 14.2141C11.7527 12.9905 12.8793 12.0967 14.1797 11.8339C14.592 11.7506 15.407 11.7489 15.8327 11.8303ZM14.7164 13.28C14.527 13.366 14.3308 13.6051 14.296 13.7923C14.2806 13.8753 14.2745 14.4639 14.2824 15.1001C14.2985 16.387 14.2991 16.3894 14.648 16.6269C14.7987 16.7295 14.8355 16.7323 16.0078 16.7323C17.1791 16.7323 17.2171 16.7294 17.372 16.6268C17.601 16.475 17.7601 16.1337 17.718 15.8844C17.6761 15.6365 17.42 15.3451 17.1868 15.2804C17.0926 15.2543 16.7376 15.2327 16.3977 15.2326L15.7798 15.2323L15.7649 14.4622C15.7487 13.6253 15.7303 13.5631 15.4342 13.3419C15.279 13.2261 14.9062 13.194 14.7164 13.28Z" fill="#1D1D1D"/>
</g>
</svg>
