<svg width="16" height="16" viewBox="0 0 16 16" fill="none" xmlns="http://www.w3.org/2000/svg">
<g id="heart">
<path id="favorite" d="M7.99967 14.2222L7.03301 13.3563C5.91079 12.3462 4.98301 11.4747 4.24967 10.7421C3.51634 10.0094 2.93301 9.35165 2.49967 8.76885C2.06634 8.18604 1.76356 7.65042 1.59134 7.16197C1.41912 6.67353 1.33301 6.17398 1.33301 5.66334C1.33301 4.61984 1.68301 3.74841 2.38301 3.04905C3.08301 2.34968 3.95523 2 4.99967 2C5.57745 2 6.12745 2.12211 6.64967 2.36633C7.1719 2.61056 7.6219 2.95469 7.99967 3.39873C8.37745 2.95469 8.82745 2.61056 9.34967 2.36633C9.8719 2.12211 10.4219 2 10.9997 2C12.0441 2 12.9163 2.34968 13.6163 3.04905C14.3163 3.74841 14.6663 4.61984 14.6663 5.66334C14.6663 6.17398 14.5802 6.67353 14.408 7.16197C14.2358 7.65042 13.933 8.18604 13.4997 8.76885C13.0663 9.35165 12.483 10.0094 11.7497 10.7421C11.0163 11.4747 10.0886 12.3462 8.96634 13.3563L7.99967 14.2222ZM7.99967 12.4239C9.06634 11.4692 9.94412 10.6505 10.633 9.96776C11.3219 9.28505 11.8663 8.69114 12.2663 8.18604C12.6663 7.68095 12.9441 7.23136 13.0997 6.83727C13.2552 6.44318 13.333 6.05187 13.333 5.66334C13.333 4.99728 13.1108 4.44222 12.6663 3.99818C12.2219 3.55414 11.6663 3.33212 10.9997 3.33212C10.4775 3.33212 9.99412 3.47921 9.54967 3.77339C9.10523 4.06757 8.79967 4.44222 8.63301 4.89737H7.36634C7.19967 4.44222 6.89412 4.06757 6.44967 3.77339C6.00523 3.47921 5.5219 3.33212 4.99967 3.33212C4.33301 3.33212 3.77745 3.55414 3.33301 3.99818C2.88856 4.44222 2.66634 4.99728 2.66634 5.66334C2.66634 6.05187 2.74412 6.44318 2.89967 6.83727C3.05523 7.23136 3.33301 7.68095 3.73301 8.18604C4.13301 8.69114 4.67745 9.28505 5.36634 9.96776C6.05523 10.6505 6.93301 11.4692 7.99967 12.4239Z" fill="#1D1D1D"/>
</g>
</svg>
