<svg width="24" height="24" viewBox="0 0 24 24" fill="none" xmlns="http://www.w3.org/2000/svg">
    <g id="Frame 2" clip-path="url(#clip0_2394_2316)">
        <path id="image 4 (Traced)" fill-rule="evenodd" clip-rule="evenodd"
            d="M10.929 0.816386C8.30625 1.14123 5.9947 2.56323 4.52958 4.75309C3.66525 6.04501 3.17663 7.45764 3.04509 9.04496L2.98852 9.72746L2.67347 9.77706C1.78973 9.91623 1.05647 10.5845 0.828891 11.4582C0.723703 11.8621 0.723703 15.1285 0.828891 15.5324C1.08258 16.5063 2.00358 17.2453 2.96381 17.2453H3.18206L3.28823 17.5382C3.88706 19.1903 5.1623 20.5433 6.72061 21.1798C7.41567 21.4637 8.40052 21.6979 8.901 21.6983C9.09727 21.6984 9.1012 21.7017 9.246 21.9886C9.53526 22.5617 10.0934 23.0103 10.72 23.1735C11.1111 23.2754 12.9031 23.2754 13.2942 23.1735C14.1027 22.9629 14.7255 22.3382 14.9372 21.5253C15.2408 20.3597 14.4947 19.1297 13.2942 18.817C12.9031 18.7152 11.1111 18.7152 10.72 18.817C10.1137 18.975 9.53681 19.4275 9.26958 19.9548C9.12759 20.2351 9.10064 20.2412 8.4915 20.1322C6.92081 19.8511 5.62383 18.9049 4.93425 17.5372C4.82864 17.3278 4.80319 17.2383 4.8458 17.2262C4.87866 17.2168 5.00048 17.1832 5.1165 17.1516C5.86627 16.9472 6.48248 16.3112 6.68536 15.5324C6.79055 15.1285 6.79055 11.8621 6.68536 11.4582C6.45614 10.5782 5.72494 9.91628 4.82559 9.77467L4.49527 9.72268L4.52742 9.25351C4.73634 6.20307 6.79978 3.54409 9.669 2.62792C10.5589 2.34376 11.0033 2.27584 11.9837 2.27415C12.9921 2.27237 13.4215 2.33457 14.2806 2.60682C17.2077 3.53453 19.2755 6.17443 19.4868 9.25351L19.519 9.72268L19.1887 9.77467C18.2893 9.91628 17.5581 10.5782 17.3289 11.4582C17.2237 11.8621 17.2237 15.1285 17.3289 15.5324C17.5395 16.3409 18.1642 16.9636 18.9771 17.1753C19.3565 17.2742 21.1578 17.2742 21.5371 17.1753C22.35 16.9636 22.9748 16.3409 23.1854 15.5324C23.2905 15.1285 23.2905 11.8621 23.1854 11.4582C22.9578 10.5845 22.2245 9.91623 21.3408 9.77706L21.0257 9.72746L20.9692 9.04496C20.8685 7.83034 20.615 6.89846 20.095 5.83121C19.5064 4.62315 18.792 3.70117 17.7962 2.86407C15.8882 1.26029 13.381 0.512729 10.929 0.816386ZM4.91109 11.3654C4.9822 11.4185 5.08388 11.5202 5.13703 11.5914C5.23069 11.7168 5.23369 11.7763 5.23369 13.4953C5.23369 15.2143 5.23069 15.2737 5.13703 15.3991C4.89853 15.7186 4.88456 15.7218 3.75712 15.7218C2.62973 15.7218 2.61581 15.7186 2.37722 15.3992C2.28455 15.2752 2.28 15.2016 2.26645 13.6208C2.25872 12.7139 2.26481 11.9039 2.28005 11.8209C2.29528 11.7378 2.36386 11.6032 2.43244 11.5217C2.65036 11.2627 2.74266 11.245 3.81244 11.2575C4.70859 11.2679 4.79156 11.276 4.91109 11.3654ZM21.4111 11.3654C21.4822 11.4185 21.5839 11.5202 21.637 11.5914C21.7307 11.7168 21.7337 11.7763 21.7337 13.4953C21.7337 15.2143 21.7307 15.2737 21.637 15.3991C21.3985 15.7186 21.3846 15.7218 20.2571 15.7218C19.1297 15.7218 19.1158 15.7186 18.8772 15.3992C18.7845 15.2752 18.78 15.2016 18.7665 13.6208C18.7587 12.7139 18.7648 11.9039 18.78 11.8209C18.7953 11.7378 18.8639 11.6032 18.9324 11.5217C19.1504 11.2627 19.2427 11.245 20.3124 11.2575C21.2086 11.2679 21.2916 11.276 21.4111 11.3654ZM13.1611 20.3654C13.407 20.5492 13.4837 20.6989 13.4837 20.9953C13.4837 21.2916 13.407 21.4414 13.1611 21.6252C13.0426 21.7138 12.9547 21.7231 12.1093 21.7369C11.0655 21.754 10.911 21.7267 10.7013 21.4879C10.4561 21.2087 10.4481 20.8002 10.6824 20.5217C10.9004 20.2627 10.9927 20.245 12.0624 20.2575C12.9586 20.2679 13.0416 20.276 13.1611 20.3654Z"
            fill="#1D1D1D" />
    </g>
    <defs>
        <clipPath id="clip0_2394_2316">
            <rect width="24" height="24" fill="white" />
        </clipPath>
    </defs>
</svg>
