<svg width="751" height="660" viewBox="0 0 751 660" fill="none" xmlns="http://www.w3.org/2000/svg">
<g filter="url(#filter0_i_1390_20313)">
<path d="M30.9433 0C-6.69788 256.986 174.118 348.949 285.108 366.448C276.503 392.4 267.479 432.003 266.594 476.258C157.409 487.175 66.3371 543.644 21.5055 594.029C-35.896 658.542 33.6323 662.995 89.7187 658.542C197.344 653.934 438.061 647.483 539.926 658.542C641.791 669.602 608.154 615.17 570.474 581.898C491.893 512.509 410.692 481.983 334.858 475.653C335.807 440.131 343.134 407.961 349.904 387.661C572.954 467.868 730.743 350.587 751 219.368C524.756 134.815 381.962 258.42 337.87 333.684C337.046 333.266 336.197 332.877 335.326 332.52C335.108 332.43 334.889 332.343 334.67 332.259C334.512 77.2679 132.749 4.43508 30.9433 0Z" fill="#FEE500"/>
<path d="M30.9433 0C-6.69788 256.986 174.118 348.949 285.108 366.448C276.503 392.4 267.479 432.003 266.594 476.258C157.409 487.175 66.3371 543.644 21.5055 594.029C-35.896 658.542 33.6323 662.995 89.7187 658.542C197.344 653.934 438.061 647.483 539.926 658.542C641.791 669.602 608.154 615.17 570.474 581.898C491.893 512.509 410.692 481.983 334.858 475.653C335.807 440.131 343.134 407.961 349.904 387.661C572.954 467.868 730.743 350.587 751 219.368C524.756 134.815 381.962 258.42 337.87 333.684C337.046 333.266 336.197 332.877 335.326 332.52C335.108 332.43 334.889 332.343 334.67 332.259C334.512 77.2679 132.749 4.43508 30.9433 0Z" stroke="#FEE500"/>
</g>
<defs>
<filter id="filter0_i_1390_20313" x="0" y="0" width="752" height="661" filterUnits="userSpaceOnUse" color-interpolation-filters="sRGB">
<feFlood flood-opacity="0" result="BackgroundImageFix"/>
<feBlend mode="normal" in="SourceGraphic" in2="BackgroundImageFix" result="shape"/>
<feColorMatrix in="SourceAlpha" type="matrix" values="0 0 0 0 0 0 0 0 0 0 0 0 0 0 0 0 0 0 127 0" result="hardAlpha"/>
<feOffset dx="1" dy="1"/>
<feGaussianBlur stdDeviation="1"/>
<feComposite in2="hardAlpha" operator="arithmetic" k2="-1" k3="1"/>
<feColorMatrix type="matrix" values="0 0 0 0 0 0 0 0 0 0 0 0 0 0 0 0 0 0 0.25 0"/>
<feBlend mode="normal" in2="shape" result="effect1_innerShadow_1390_20313"/>
</filter>
</defs>
</svg>
