<svg width="24" height="24" viewBox="0 0 24 24" fill="none" xmlns="http://www.w3.org/2000/svg">
<g id="Management">
<path id="Vector" d="M12.0193 1.59568C13.8085 1.59568 15.5977 1.59052 17.3869 1.59708C19.8319 1.60552 21.8232 3.20583 22.3304 5.57911C22.4082 5.94286 22.44 6.32255 22.441 6.69521C22.4489 10.2432 22.4489 13.7907 22.4447 17.3386C22.4419 19.7588 20.9016 21.7491 18.5916 22.298C18.1857 22.3946 17.7572 22.4307 17.3386 22.4321C13.7911 22.4424 10.2441 22.4419 6.6966 22.4368C4.13817 22.433 2.13754 20.7727 1.66926 18.2701C1.61629 17.9879 1.59848 17.6954 1.59801 17.408C1.59379 13.8127 1.59145 10.2179 1.59707 6.62349C1.60082 4.02943 3.49504 1.91302 6.06613 1.61911C6.29067 1.5938 6.51895 1.59661 6.74535 1.59661C8.50317 1.59474 10.2614 1.59568 12.0193 1.59568ZM20.235 19.5394C20.2782 19.4682 20.2894 19.448 20.3021 19.4283C20.3363 19.3763 20.3719 19.3247 20.4057 19.2722C20.7858 18.6746 20.9471 18.0169 20.9471 17.3138C20.9471 13.7668 20.948 10.2193 20.9443 6.67224C20.9443 6.43927 20.9274 6.20208 20.8829 5.97333C20.5514 4.26286 19.1686 3.10364 17.4221 3.09896C13.8207 3.08911 10.2193 3.09568 6.61785 3.09755C6.43879 3.09755 6.25692 3.10318 6.08113 3.13318C4.29332 3.43786 3.09754 4.85489 3.0966 6.67083C3.09473 10.2258 3.0952 13.7808 3.09801 17.3358C3.09801 17.5538 3.1116 17.7741 3.14582 17.9888C3.23254 18.5335 3.43879 19.0304 3.81426 19.5244C3.9666 18.2007 4.37254 17.0241 5.04988 15.946C5.72817 14.866 6.61832 13.9946 7.68801 13.3111C6.36567 10.9604 7.07723 8.38411 8.75863 6.95021C10.4977 5.46755 13.0093 5.35599 14.8889 6.63989C16.4991 7.74005 17.9316 10.4546 16.365 13.3144C18.5855 14.7779 19.8732 16.8305 20.235 19.5394ZM8.65832 14.5051C7.62848 15.0802 6.7266 15.9971 6.1191 17.0874C5.5566 18.0966 5.28098 19.1808 5.26785 20.3349C5.26504 20.5782 5.31098 20.7582 5.59738 20.791C5.95223 20.8318 6.3052 20.9293 6.6591 20.9307C10.2432 20.9415 13.8277 20.9424 17.4118 20.9293C17.7877 20.9279 18.1632 20.8186 18.5391 20.7591C18.7027 20.7333 18.7604 20.6457 18.7632 20.4727C18.7889 18.7313 18.2105 17.214 17.0818 15.901C16.5957 15.3352 16.0257 14.8674 15.3788 14.5022C13.4654 16.1879 10.6402 16.2436 8.65832 14.5051ZM12.0183 14.2875C13.9608 14.288 15.5325 12.7177 15.5368 10.7729C15.5405 8.83271 13.966 7.24786 12.0296 7.24271C10.0871 7.23708 8.49051 8.83177 8.49379 10.7738C8.49707 12.7102 10.0786 14.2871 12.0183 14.2875Z" fill="#1D1D1D"/>
</g>
</svg>
