<svg width="24" height="24" viewBox="0 0 24 24" fill="none" xmlns="http://www.w3.org/2000/svg">
<g id="Frame 3">
<path id="image 1 (Traced)" fill-rule="evenodd" clip-rule="evenodd" d="M10.3494 4.87378L5.85618 6.75H4.67563C3.76677 6.75 3.43161 6.7665 3.2195 6.82177C2.411 7.03238 1.78827 7.65712 1.57654 8.46998C1.47449 8.86177 1.47449 12.1382 1.57654 12.53C1.78827 13.3429 2.411 13.9676 3.2195 14.1782C3.43166 14.2335 3.77033 14.2502 4.69222 14.2507C5.35068 14.2511 5.91496 14.2677 5.94622 14.2875C5.98944 14.315 6.00627 14.991 6.01654 17.1111L6.03004 19.8984L6.15636 20.1378C6.34344 20.4925 6.48472 20.6385 6.8128 20.8164L7.10816 20.9766H8.2566H9.40504L9.70039 20.8164C10.0285 20.6385 10.1698 20.4925 10.3568 20.1378L10.4832 19.8984L10.4974 18.0538C10.5106 16.3459 10.5175 16.2108 10.5912 16.2312C10.6349 16.2433 11.6182 16.6485 12.7764 17.1318C14.6864 17.9287 14.9016 18.0082 15.0904 17.9869C15.3149 17.9616 15.4835 17.8588 15.6365 17.6538C15.7331 17.5244 15.7332 17.5215 15.7332 10.5C15.7332 3.47855 15.7331 3.47559 15.6365 3.34617C15.4775 3.13317 15.3086 3.03487 15.0687 3.0157C14.8591 2.99892 14.5137 3.13491 10.3494 4.87378ZM19.1887 3.81586C18.0093 4.40437 17.5193 4.67255 17.4304 4.7782C17.0257 5.25914 17.387 6 18.0262 6C18.2621 6 21.4115 4.42538 21.5828 4.2218C21.9875 3.74086 21.6262 3 20.987 3C20.8695 3 20.3659 3.22847 19.1887 3.81586ZM14.2453 13.3054L14.2332 16.1108L10.2488 14.4432L6.26441 12.7757L4.87316 12.7511C3.56193 12.728 3.4745 12.721 3.35263 12.6299C3.28152 12.5767 3.17985 12.475 3.12669 12.4038C3.03304 12.2784 3.03004 12.219 3.03004 10.5C3.03004 8.781 3.03304 8.72156 3.12669 8.59617C3.17985 8.52497 3.28152 8.42325 3.35263 8.37009C3.4745 8.27902 3.56193 8.27203 4.87316 8.24887L6.26441 8.22427L10.2488 6.55678L14.2332 4.88925L14.2453 7.69462C14.2519 9.23756 14.2519 11.7624 14.2453 13.3054ZM18.4496 9.81506C18.139 9.95227 17.9607 10.311 18.0271 10.665C18.0682 10.8839 18.302 11.143 18.5149 11.2053C18.627 11.2382 19.2644 11.2506 20.3587 11.241C21.9628 11.2272 22.0364 11.2226 22.1605 11.1299C22.4064 10.9462 22.4832 10.7964 22.4832 10.5C22.4832 10.2036 22.4064 10.0538 22.1605 9.87009C22.036 9.77709 21.9664 9.77302 20.3118 9.7627C18.9538 9.75417 18.5625 9.76519 18.4496 9.81506ZM8.26311 15.253L8.98316 15.5528L8.99539 17.5264L9.00763 19.5H8.25711H7.5066V17.2266C7.5066 15.9762 7.5148 14.9531 7.52483 14.9531C7.53486 14.9531 7.86707 15.088 8.26311 15.253ZM17.7019 15.0737C17.3745 15.244 17.2251 15.5131 17.2704 15.851C17.3219 16.235 17.4114 16.2973 19.1853 17.1824C20.9201 18.048 20.998 18.0752 21.3164 17.9241C21.7627 17.7123 21.8939 17.148 21.5828 16.7782C21.4939 16.6725 21.0039 16.4044 19.8245 15.8159C18.0963 14.9535 17.9986 14.9194 17.7019 15.0737Z" fill="#1D1D1D"/>
</g>
</svg>
