<svg width="24" height="24" viewBox="0 0 24 24" fill="none" xmlns="http://www.w3.org/2000/svg">
<g id="Frame 4" clip-path="url(#clip0_2394_11492)">
<path id="image 3 (Traced)" fill-rule="evenodd" clip-rule="evenodd" d="M4.48012 0.0636798C4.08543 0.162445 3.78998 0.331102 3.49237 0.627586C3.18586 0.932977 3.00056 1.26926 2.9152 1.67515C2.8402 2.03173 2.84104 21.9684 2.91609 22.319C3.08845 23.1243 3.7357 23.7716 4.54101 23.9439C4.89061 24.0187 19.111 24.0195 19.4661 23.9448C20.2616 23.7772 20.9259 23.1131 21.0922 22.319C21.1291 22.1426 21.1442 19.7649 21.1442 14.1252C21.1442 6.94418 21.137 6.16549 21.0694 6.02988C20.9662 5.82298 15.3501 0.200086 15.1343 0.0876798C14.9654 -0.000351408 14.8142 -0.00283578 9.83746 0.00105484C5.90418 0.00410172 4.66007 0.0186798 4.48012 0.0636798ZM14.1129 3.25259C14.1129 4.4539 14.1315 5.18885 14.1661 5.35024C14.3384 6.15555 14.9857 6.8028 15.791 6.97516C15.9524 7.00971 16.6874 7.02832 17.8887 7.02832H19.7379V14.5302C19.7379 21.9563 19.737 22.0339 19.6436 22.217C19.5828 22.3361 19.4833 22.4357 19.3642 22.4965C19.1812 22.5898 19.1026 22.5908 12.0001 22.5908H4.821L4.63401 22.4857C4.52428 22.424 4.41028 22.3086 4.35811 22.2064C4.27157 22.0368 4.26923 21.7594 4.27115 11.9872C4.27303 2.40462 4.27701 1.93507 4.35754 1.78395C4.40395 1.6968 4.52437 1.57563 4.62511 1.51465L4.80825 1.40379L9.46059 1.40355L14.1129 1.40332V3.25259ZM17.3904 5.6111C16.0989 5.62329 16.07 5.62151 15.8853 5.51773C15.5339 5.3202 15.5192 5.24885 15.5192 3.73746V2.41165L17.1132 4.00516L18.7073 5.59863L17.3904 5.6111ZM7.44548 10.0312C7.24757 10.1357 7.08168 10.4123 7.08168 10.6377C7.08168 10.8703 7.24748 11.1403 7.45546 11.2465C7.63692 11.339 7.72321 11.3408 12.0036 11.3408C16.2839 11.3408 16.3702 11.339 16.5517 11.2465C16.7596 11.1403 16.9254 10.8703 16.9254 10.6377C16.9254 10.4051 16.7596 10.1351 16.5517 10.0289C16.3701 9.93631 16.286 9.93462 11.9937 9.93663C7.73245 9.93865 7.61625 9.94109 7.44548 10.0312ZM7.44548 12.8437C7.24757 12.9482 7.08168 13.2248 7.08168 13.4502C7.08168 13.6828 7.24748 13.9528 7.45546 14.059C7.63692 14.1515 7.72321 14.1533 12.0036 14.1533C16.2839 14.1533 16.3702 14.1515 16.5517 14.059C16.7596 13.9528 16.9254 13.6828 16.9254 13.4502C16.9254 13.2176 16.7596 12.9476 16.5517 12.8414C16.3701 12.7488 16.286 12.7471 11.9937 12.7491C7.73245 12.7511 7.61625 12.7536 7.44548 12.8437ZM7.44548 15.6562C7.24757 15.7607 7.08168 16.0373 7.08168 16.2627C7.08168 16.4953 7.24748 16.7653 7.45546 16.8715C7.63692 16.964 7.72321 16.9658 12.0036 16.9658C16.2839 16.9658 16.3702 16.964 16.5517 16.8715C16.7596 16.7653 16.9254 16.4953 16.9254 16.2627C16.9254 16.0301 16.7596 15.7601 16.5517 15.6539C16.3701 15.5613 16.286 15.5596 11.9937 15.5616C7.73245 15.5636 7.61625 15.5661 7.44548 15.6562ZM7.44548 18.4687C7.24757 18.5732 7.08168 18.8498 7.08168 19.0752C7.08168 19.3078 7.24748 19.5778 7.45546 19.684C7.63509 19.7756 7.72636 19.7783 10.5973 19.7783C13.4683 19.7783 13.5595 19.7756 13.7392 19.684C13.9471 19.5778 14.1129 19.3078 14.1129 19.0752C14.1129 18.8426 13.9471 18.5726 13.7392 18.4664C13.5594 18.3747 13.4704 18.3721 10.5875 18.3741C7.72636 18.3761 7.61451 18.3795 7.44548 18.4687Z" fill="#1D1D1D"/>
</g>
<defs>
<clipPath id="clip0_2394_11492">
<rect width="24" height="24" fill="white"/>
</clipPath>
</defs>
</svg>
